# xmcd
#
# Track frame offsets:
# 150
# 1038
# 15316
# 31964
# 48679
# 64751
# 80132
# 97557
# 114899
# 127923
# 141769
# 159791
# 175534
# 195188
# 218597
#
# Disc length: 3436 seconds
#
#
# Revision: 0
# Processed by: cddbd v1.5PL3 Copyright (c) Steve Scherf et al.
# Submitted via: FreeRIP 2.60 
#
DISCID=a10d6a0f
DTITLE=Pat Boyack - Voices From The Street
DYEAR=1900
DGENRE=Blues
TTITLE0=Revolution
TTITLE1=Listen To Me
TTITLE2=Misery
TTITLE3=The Power Is Gone
TTITLE4=Chance At Love
TTITLE5=Who's Gonna Help Brother Get Further?
TTITLE6=Ain't That A Shame
TTITLE7=First Comes The Grievin'
TTITLE8=Feel Like Goin' On
TTITLE9=Sexy Coffeepot
TTITLE10=These Are People
TTITLE11=Shotgun Slim
TTITLE12=Pushin' On
TTITLE13=Time (Has Come Today)
TTITLE14=extra track
EXTD=Bluesfestradio.com
EXTT0=
EXTT1=
EXTT2=
EXTT3=
EXTT4=
EXTT5=
EXTT6=
EXTT7=
EXTT8=
EXTT9=
EXTT10=
EXTT11=
EXTT12=
EXTT13=
EXTT14=
PLAYORDER=
